<svg width="61" height="61" viewBox="0 0 61 61" fill="none" xmlns="http://www.w3.org/2000/svg">
<path d="M30.5 53.375C43.1335 53.375 53.375 43.1335 53.375 30.5C53.375 17.8665 43.1335 7.625 30.5 7.625C17.8665 7.625 7.625 17.8665 7.625 30.5C7.625 43.1335 17.8665 53.375 30.5 53.375Z" stroke="#101828" stroke-width="2" stroke-linecap="round" stroke-linejoin="round"/>
<path d="M30.5 38.125C35.764 38.125 40.0312 33.8577 40.0312 28.5938C40.0312 23.3298 35.764 19.0625 30.5 19.0625C25.236 19.0625 20.9688 23.3298 20.9688 28.5938C20.9688 33.8577 25.236 38.125 30.5 38.125Z" stroke="#101828" stroke-width="2" stroke-linecap="round" stroke-linejoin="round"/>
<path d="M15.2024 47.5133C16.6366 44.6883 18.8251 42.3156 21.5253 40.6582C24.2254 39.0008 27.3318 38.1235 30.5 38.1235C33.6683 38.1235 36.7746 39.0008 39.4748 40.6582C42.175 42.3156 44.3635 44.6883 45.7977 47.5133" stroke="#101828" stroke-width="2" stroke-linecap="round" stroke-linejoin="round"/>
</svg>
