<svg width="56" height="56" viewBox="0 0 56 56" fill="none" xmlns="http://www.w3.org/2000/svg">
<path d="M21 33.25H35" stroke="#101828" stroke-width="2" stroke-linecap="round" stroke-linejoin="round"/>
<path d="M21 26.25H35" stroke="#101828" stroke-width="2" stroke-linecap="round" stroke-linejoin="round"/>
<path d="M35 8.75H43.75C44.2141 8.75 44.6592 8.93437 44.9874 9.26256C45.3156 9.59075 45.5 10.0359 45.5 10.5V47.25C45.5 47.7141 45.3156 48.1592 44.9874 48.4874C44.6592 48.8156 44.2141 49 43.75 49H12.25C11.7859 49 11.3408 48.8156 11.0126 48.4874C10.6844 48.1592 10.5 47.7141 10.5 47.25V10.5C10.5 10.0359 10.6844 9.59075 11.0126 9.26256C11.3408 8.93437 11.7859 8.75 12.25 8.75H21" stroke="#101828" stroke-width="2" stroke-linecap="round" stroke-linejoin="round"/>
<path d="M19.25 15.75V14C19.25 11.6794 20.1719 9.45376 21.8128 7.81282C23.4538 6.17187 25.6794 5.25 28 5.25C30.3206 5.25 32.5462 6.17187 34.1872 7.81282C35.8281 9.45376 36.75 11.6794 36.75 14V15.75H19.25Z" stroke="#101828" stroke-width="2" stroke-linecap="round" stroke-linejoin="round"/>
</svg>
