<svg width="56" height="56" viewBox="0 0 56 56" fill="none" xmlns="http://www.w3.org/2000/svg">
<path d="M28.8749 47.25H10.4343C10.2123 47.2529 9.99192 47.2114 9.78623 47.1278C9.58054 47.0442 9.39369 46.9202 9.23669 46.7632C9.07969 46.6062 8.95573 46.4194 8.87213 46.2137C8.78852 46.008 8.74696 45.7876 8.7499 45.5656V27.125C8.7499 21.7875 10.8702 16.6686 14.6444 12.8945C18.4185 9.12031 23.5374 7 28.8749 7V7C31.5178 7 34.1347 7.52055 36.5764 8.53192C39.0181 9.5433 41.2366 11.0257 43.1054 12.8945C44.9742 14.7633 46.4566 16.9818 47.468 19.4235C48.4794 21.8652 48.9999 24.4821 48.9999 27.125V27.125C48.9999 29.7679 48.4794 32.3848 47.468 34.8265C46.4566 37.2682 44.9742 39.4867 43.1054 41.3555C41.2366 43.2243 39.0181 44.7067 36.5764 45.7181C34.1347 46.7294 31.5178 47.25 28.8749 47.25V47.25Z" stroke="#101828" stroke-width="2" stroke-linecap="round" stroke-linejoin="round"/>
<path d="M21.875 24.5H35" stroke="#101828" stroke-width="2" stroke-linecap="round" stroke-linejoin="round"/>
<path d="M21.875 31.5H35" stroke="#101828" stroke-width="2" stroke-linecap="round" stroke-linejoin="round"/>
</svg>
