<svg width="56" height="56" viewBox="0 0 56 56" fill="none" xmlns="http://www.w3.org/2000/svg">
<path d="M45.5 8.75H10.5C9.5335 8.75 8.75 9.5335 8.75 10.5V45.5C8.75 46.4665 9.5335 47.25 10.5 47.25H45.5C46.4665 47.25 47.25 46.4665 47.25 45.5V10.5C47.25 9.5335 46.4665 8.75 45.5 8.75Z" stroke="#101828" stroke-width="2" stroke-linecap="round" stroke-linejoin="round"/>
<path d="M38.5 5.25V12.25" stroke="#101828" stroke-width="2" stroke-linecap="round" stroke-linejoin="round"/>
<path d="M17.5 5.25V12.25" stroke="#101828" stroke-width="2" stroke-linecap="round" stroke-linejoin="round"/>
<path d="M8.75 19.25H47.25" stroke="#101828" stroke-width="2" stroke-linecap="round" stroke-linejoin="round"/>
<path d="M20.125 28H26.25L22.75 32.375C23.326 32.374 23.8934 32.5152 24.4017 32.7861C24.9101 33.0569 25.3437 33.449 25.6642 33.9276C25.9847 34.4063 26.1821 34.9566 26.2389 35.5298C26.2957 36.103 26.2102 36.6814 25.9899 37.2136C25.7696 37.7458 25.4214 38.2154 24.9761 38.5808C24.5308 38.9461 24.0022 39.196 23.4372 39.3081C22.8722 39.4202 22.2882 39.3911 21.7372 39.2234C21.1861 39.0558 20.6849 38.7547 20.2781 38.3469" stroke="#101828" stroke-width="2" stroke-linecap="round" stroke-linejoin="round"/>
<path d="M31.5 30.625L35 28V39.375" stroke="#101828" stroke-width="2" stroke-linecap="round" stroke-linejoin="round"/>
</svg>
