<svg width="56" height="56" viewBox="0 0 56 56" fill="none" xmlns="http://www.w3.org/2000/svg">
<path d="M28.875 47.25H10.4344C10.2124 47.2529 9.99204 47.2114 9.78635 47.1278C9.58067 47.0442 9.39381 46.9202 9.23681 46.7632C9.07981 46.6062 8.95586 46.4194 8.87225 46.2137C8.78864 46.008 8.74708 45.7876 8.75002 45.5656V27.125C8.75002 21.7875 10.8703 16.6686 14.6445 12.8945C18.4187 9.12031 23.5375 7 28.875 7V7C31.5179 7 34.1348 7.52055 36.5765 8.53192C39.0182 9.5433 41.2368 11.0257 43.1055 12.8945C44.9743 14.7633 46.4567 16.9818 47.4681 19.4235C48.4795 21.8652 49 24.4821 49 27.125V27.125C49 29.7679 48.4795 32.3848 47.4681 34.8265C46.4567 37.2682 44.9743 39.4867 43.1055 41.3555C41.2368 43.2243 39.0182 44.7067 36.5765 45.7181C34.1348 46.7294 31.5179 47.25 28.875 47.25V47.25Z" stroke="#101828" stroke-width="2" stroke-linecap="round" stroke-linejoin="round"/>
<path d="M21.875 24.5H35" stroke="#101828" stroke-width="2" stroke-linecap="round" stroke-linejoin="round"/>
<path d="M21.875 31.5H35" stroke="#101828" stroke-width="2" stroke-linecap="round" stroke-linejoin="round"/>
</svg>
